<?xml version="1.0" standalone="no"?>
<!DOCTYPE svg PUBLIC "-//W3C//DTD SVG 20010904//EN"
 "http://www.w3.org/TR/2001/REC-SVG-20010904/DTD/svg10.dtd">
<svg version="1.0" xmlns="http://www.w3.org/2000/svg"
 width="597.000000pt" height="322.000000pt" viewBox="0 0 597.000000 322.000000"
 preserveAspectRatio="xMidYMid meet">

<g transform="translate(0.000000,322.000000) scale(0.100000,-0.100000)"
fill="#000000" stroke="none">
<path d="M500 1445 l0 -1035 825 0 825 0 0 1035 0 1035 -825 0 -825 0 0 -1035z
m876 681 c104 -104 167 -202 184 -288 25 -125 -21 -221 -225 -473 -53 -66
-110 -142 -126 -170 -36 -62 -69 -164 -69 -216 0 -86 67 -209 155 -282 101
-85 23 -74 -170 24 -170 86 -261 172 -306 289 -29 75 -21 161 23 250 26 54 62
95 208 240 242 240 280 301 280 443 0 116 -25 194 -87 270 -13 16 -23 33 -23
38 0 18 63 -33 156 -125z m338 -374 c76 -152 52 -388 -55 -524 -19 -24 -75
-87 -126 -140 -100 -107 -140 -175 -150 -256 -5 -45 -8 -50 -21 -40 -28 23
-52 92 -52 148 0 127 35 197 209 413 144 179 166 223 166 337 0 47 -4 94 -9
104 -21 43 15 3 38 -42z m133 -645 c5 -45 1 -64 -19 -108 -33 -70 -80 -117
-200 -196 -54 -36 -117 -86 -139 -111 l-42 -47 7 54 c4 30 14 68 23 85 9 17
73 90 143 161 139 144 159 179 161 284 l1 56 29 -62 c17 -34 33 -87 36 -116z"/>
<path d="M5290 1853 c-48 -18 -70 -74 -50 -124 25 -60 137 -64 185 -7 22 26
26 39 21 67 -8 49 -37 71 -95 70 -25 0 -53 -3 -61 -6z"/>
<path d="M4865 1753 c-36 -9 -45 -24 -45 -78 0 -69 -7 -85 -36 -85 -46 0 -83
-61 -70 -115 6 -22 12 -25 48 -25 l41 0 -7 -47 c-3 -27 -9 -100 -12 -163 -6
-114 -6 -116 22 -157 33 -50 82 -73 155 -73 112 0 181 70 134 137 -13 19 -19
21 -46 11 -39 -13 -75 1 -81 34 -2 13 1 75 6 138 l11 115 55 7 c69 8 103 41
98 97 l-3 36 -69 3 -69 3 7 45 c3 25 3 57 0 70 -11 42 -74 63 -139 47z"/>
<path d="M2695 1596 c-13 -9 -23 -37 -31 -85 -15 -89 -70 -207 -151 -325 -35
-50 -63 -97 -63 -104 0 -7 12 -24 26 -37 39 -36 93 -34 137 5 l34 29 23 -24
c47 -50 187 -58 275 -15 61 30 88 70 93 140 5 73 -7 97 -98 185 -84 82 -100
109 -100 168 0 30 -6 49 -18 60 -23 21 -101 23 -127 3z m150 -351 c20 -43 19
-57 -5 -83 -24 -25 -94 -31 -124 -9 -16 12 -16 16 7 67 13 30 29 68 36 84 l12
29 29 -28 c16 -15 36 -43 45 -60z"/>
<path d="M3505 1599 c-55 -17 -62 -29 -84 -149 -23 -120 -71 -303 -78 -296 -2
2 -15 97 -28 212 -27 229 -29 234 -92 234 -33 0 -95 -21 -118 -40 -18 -15 86
-496 114 -523 31 -31 133 -36 195 -9 55 25 56 28 102 217 19 77 38 154 42 170
5 19 11 -39 15 -164 7 -228 8 -231 102 -239 82 -7 139 12 168 57 119 180 179
423 126 510 -20 33 -22 33 -75 29 -30 -3 -59 -9 -64 -14 -6 -6 -15 -56 -20
-113 -10 -106 -34 -199 -74 -286 l-23 -50 -7 188 c-7 199 -12 223 -47 256 -25
23 -97 28 -154 10z"/>
<path d="M4205 1591 c-85 -38 -143 -145 -152 -281 -14 -194 66 -310 205 -296
58 5 113 36 133 73 16 30 22 29 36 -7 23 -60 118 -89 184 -55 52 27 68 108 24
125 -34 13 -38 41 -26 179 17 186 15 218 -14 246 -18 19 -35 25 -67 25 -70 0
-87 -8 -90 -44 l-3 -31 -19 32 c-11 17 -30 36 -43 42 -36 17 -123 13 -168 -8z
m195 -141 c17 -17 20 -33 20 -96 0 -96 -15 -148 -53 -180 -36 -30 -58 -30 -93
0 -24 20 -28 33 -32 87 -5 81 12 144 48 181 34 34 81 37 110 8z"/>
<path d="M5238 1593 c-12 -3 -18 -14 -18 -31 0 -15 -7 -112 -15 -216 -17 -211
-13 -246 34 -298 23 -26 37 -32 82 -36 48 -4 59 -1 86 22 33 28 48 66 38 97
-4 10 -12 19 -19 19 -8 0 -19 7 -27 16 -11 13 -11 47 -1 190 11 151 11 178 -2
203 -9 16 -23 31 -31 35 -18 7 -100 6 -127 -1z"/>
</g>
</svg>
